# xmcd
#
# Track frame offsets:
#	183
#	10015
#	29225
#	43303
#	60753
#	73393
#	89960
#	108288
#	121473
#	138160
#	152280
#	165045
#	180460
#	198315
#	213050
#	224248
#	238293
#	254013
#	266140
#	279263
#
# Disc length: 3914 seconds
#
# Revision: 5
# Processed by: cddbd v1.5.2PL0 Copyright (c) Steve Scherf et al.
# Submitted via: audiograbber 1.83.01
#
DISCID=2a0f4814
DTITLE=Anne Murray - The Best ... So Far
DYEAR=1994
DGENRE=Country
TTITLE0=Snowbird
TTITLE1=Now And Forever (You And Me)
TTITLE2=Danny's Song
TTITLE3=& Dave Logging - Nobody Loves Me Like You Do
TTITLE4=A Love Song
TTITLE5=Time Don't Run Out On Me
TTITLE6=You Won't See Me
TTITLE7=Just Another Woman In Love
TTITLE8=You Needed Me
TTITLE9=A little Good News
TTITLE10=I Just Fall In Love Again
TTITLE11=Somebody's Always Saying Goodbye
TTITLE12=Broken Hearted Me
TTITLE13=Could I Have This Dance
TTITLE14=Daydream Believer
TTITLE15=Another Sleepless Night
TTITLE16=Shadows In The Moonlight
TTITLE17=Blessed Are The Believers
TTITLE18=Make Love To Me
TTITLE19=Over You
EXTD=EMI MUSIC CANADA\n7243 8 31158 2 2
EXTT0=
EXTT1=
EXTT2=
EXTT3=
EXTT4=
EXTT5=
EXTT6=
EXTT7=
EXTT8=
EXTT9=
EXTT10=
EXTT11=
EXTT12=
EXTT13=
EXTT14=
EXTT15=
EXTT16=
EXTT17=
EXTT18=
EXTT19=
PLAYORDER=
